<?xml version="1.0" encoding="utf-8"?>
<!-- Generator: Adobe Illustrator 25.2.3, SVG Export Plug-In . SVG Version: 6.00 Build 0)  -->
<svg version="1.1" id="Layer_1" xmlns="http://www.w3.org/2000/svg" xmlns:xlink="http://www.w3.org/1999/xlink" x="0px" y="0px"
	 viewBox="0 0 1920 1080" style="enable-background:new 0 0 1920 1080;" xml:space="preserve">
<style type="text/css">
	.st0{fill:none;stroke:#E6E6E6;stroke-miterlimit:10;}
</style>
<g id="bg_x5F_view_x5F_2">
	<rect x="0.44" y="-0.46" class="st0" width="50" height="1080"/>
	<rect x="50.44" y="-0.46" class="st0" width="50" height="1080"/>
	<rect x="100.44" y="-0.46" class="st0" width="50" height="1080"/>
	<rect x="150.44" y="-0.46" class="st0" width="50" height="1080"/>
	<rect x="200.44" y="-0.46" class="st0" width="50" height="1080"/>
	<rect x="250.44" y="-0.46" class="st0" width="50" height="1080"/>
	<rect x="300.44" y="-0.46" class="st0" width="50" height="1080"/>
	<rect x="350.44" y="-0.46" class="st0" width="50" height="1080"/>
	<rect x="400.44" y="-0.46" class="st0" width="50" height="1080"/>
	<rect x="450.44" y="-0.46" class="st0" width="50" height="1080"/>
	<rect x="500.44" y="-0.46" class="st0" width="50" height="1080"/>
	<rect x="550.44" y="-0.46" class="st0" width="50" height="1080"/>
	<rect x="600.44" y="-0.46" class="st0" width="50" height="1080"/>
	<rect x="650.44" y="-0.46" class="st0" width="50" height="1080"/>
	<rect x="700.44" y="-0.46" class="st0" width="50" height="1080"/>
	<rect x="750.44" y="-0.46" class="st0" width="50" height="1080"/>
	<rect x="800.44" y="-0.46" class="st0" width="50" height="1080"/>
	<rect x="850.44" y="-0.46" class="st0" width="50" height="1080"/>
	<rect x="900.44" y="-0.46" class="st0" width="50" height="1080"/>
	<rect x="950.44" y="-0.46" class="st0" width="50" height="1080"/>
	<rect x="1000.44" y="-0.46" class="st0" width="50" height="1080"/>
	<rect x="1050.44" y="-0.46" class="st0" width="50" height="1080"/>
	<rect x="1100.44" y="-0.46" class="st0" width="50" height="1080"/>
	<rect x="1150.44" y="-0.46" class="st0" width="50" height="1080"/>
	<rect x="1200.44" y="-0.46" class="st0" width="50" height="1080"/>
	<rect x="1250.44" y="-0.46" class="st0" width="50" height="1080"/>
	<rect x="1300.44" y="-0.46" class="st0" width="50" height="1080"/>
	<rect x="1350.44" y="-0.46" class="st0" width="50" height="1080"/>
	<rect x="1400.44" y="-0.46" class="st0" width="50" height="1080"/>
	<rect x="1450.44" y="-0.46" class="st0" width="50" height="1080"/>
	<rect x="1500.44" y="-0.46" class="st0" width="50" height="1080"/>
	<rect x="1550.44" y="-0.46" class="st0" width="50" height="1080"/>
	<rect x="1600.44" y="-0.46" class="st0" width="50" height="1080"/>
	<rect x="1650.44" y="-0.46" class="st0" width="50" height="1080"/>
	<rect x="1700.44" y="-0.46" class="st0" width="50" height="1080"/>
	<rect x="1750.44" y="-0.46" class="st0" width="50" height="1080"/>
	<rect x="1800.44" y="-0.46" class="st0" width="50" height="1080"/>
	<rect x="1850.44" y="-0.46" class="st0" width="50" height="1080"/>
	<rect x="1900.44" y="-0.46" class="st0" width="20" height="1080"/>
	<rect x="0.44" y="-0.46" class="st0" width="1920" height="50"/>
	<rect x="0.44" y="-0.46" class="st0" width="1920" height="50"/>
	<rect x="0.44" y="49.54" class="st0" width="1920" height="50"/>
	<rect x="0.44" y="99.54" class="st0" width="1920" height="50"/>
	<rect x="0.44" y="149.54" class="st0" width="1920" height="50"/>
	<rect x="0.44" y="149.54" class="st0" width="1920" height="50"/>
	<rect x="0.44" y="199.54" class="st0" width="1920" height="50"/>
	<rect x="0.44" y="249.54" class="st0" width="1920" height="50"/>
	<rect x="0.44" y="299.54" class="st0" width="1920" height="50"/>
	<rect x="0.44" y="299.54" class="st0" width="1920" height="50"/>
	<rect x="0.44" y="349.54" class="st0" width="1920" height="50"/>
	<rect x="0.44" y="399.54" class="st0" width="1920" height="50"/>
	<rect x="0.44" y="449.54" class="st0" width="1920" height="50"/>
	<rect x="0.44" y="449.54" class="st0" width="1920" height="50"/>
	<rect x="0.44" y="499.54" class="st0" width="1920" height="50"/>
	<rect x="0.44" y="549.54" class="st0" width="1920" height="50"/>
	<rect x="0.44" y="599.54" class="st0" width="1920" height="50"/>
	<rect x="0.44" y="599.54" class="st0" width="1920" height="50"/>
	<rect x="0.44" y="649.54" class="st0" width="1920" height="50"/>
	<rect x="0.44" y="699.54" class="st0" width="1920" height="50"/>
	<rect x="0.44" y="749.54" class="st0" width="1920" height="50"/>
	<rect x="0.44" y="749.54" class="st0" width="1920" height="50"/>
	<rect x="0.44" y="799.54" class="st0" width="1920" height="50"/>
	<rect x="0.44" y="849.54" class="st0" width="1920" height="50"/>
	<rect x="0.44" y="899.54" class="st0" width="1920" height="50"/>
	<rect x="0.44" y="899.54" class="st0" width="1920" height="50"/>
	<rect x="0.44" y="949.54" class="st0" width="1920" height="50"/>
	<rect x="0.44" y="999.54" class="st0" width="1920" height="50"/>
	<rect x="0.44" y="1049.54" class="st0" width="1920" height="30"/>
	<rect x="0.44" y="1049.54" class="st0" width="1920" height="30"/>
</g>
</svg>
