<?xml version="1.0" encoding="utf-8"?>
<!-- Generator: Adobe Illustrator 25.2.3, SVG Export Plug-In . SVG Version: 6.00 Build 0)  -->
<svg version="1.1" id="Layer_1" xmlns="http://www.w3.org/2000/svg" xmlns:xlink="http://www.w3.org/1999/xlink" x="0px" y="0px"
	 viewBox="0 0 355.14 34.54" style="enable-background:new 0 0 355.14 34.54;" xml:space="preserve">
<style type="text/css">
	.st0{stroke:#FFFFFF;stroke-width:0.3372;stroke-miterlimit:10;}
</style>
<g>
	<g>
		<rect x="10.04" y="2.69" class="st0" width="20.23" height="4.05"/>
		<rect x="10.04" y="27.76" class="st0" width="20.23" height="4.05"/>
		<rect x="18.47" y="14.84" class="st0" width="11.8" height="4.05"/>
		<rect x="5.3" y="6.74" class="st0" width="10.12" height="4.05"/>
		<rect x="5.3" y="23.71" class="st0" width="10.12" height="4.05"/>
		<rect x="1.99" y="10.78" class="st0" width="8.04" height="12.93"/>
		<rect x="23.52" y="18.89" class="st0" width="6.74" height="8.87"/>
	</g>
	<g>
		<rect x="34.83" y="2.69" class="st0" width="23.6" height="4.05"/>
		<rect x="34.83" y="6.74" class="st0" width="6.74" height="25.07"/>
		<rect x="54.55" y="6.74" class="st0" width="8.43" height="12.15"/>
		<rect x="41.57" y="18.89" class="st0" width="12.98" height="4.05"/>
		<rect x="46.57" y="22.94" class="st0" width="11.86" height="4.05"/>
		<rect x="51.12" y="26.98" class="st0" width="11.86" height="4.82"/>
		<rect x="51.35" y="15.19" class="st0" width="3.2" height="3.7"/>
	</g>
	<g>
		<rect x="69.76" y="2.69" class="st0" width="23.6" height="4.05"/>
		<rect x="69.76" y="27.76" class="st0" width="23.6" height="4.05"/>
		<rect x="77.35" y="6.74" class="st0" width="8.43" height="21.02"/>
	</g>
	<g>
		<rect x="98.36" y="6.74" class="st0" width="8.43" height="21.02"/>
		<rect x="98.36" y="2.69" class="st0" width="20.48" height="4.05"/>
		<rect x="98.36" y="27.76" class="st0" width="20.48" height="4.05"/>
		<rect x="115.33" y="23.71" class="st0" width="7.93" height="4.05"/>
		<rect x="115.33" y="6.74" class="st0" width="7.93" height="4.05"/>
		<rect x="119.04" y="10.78" class="st0" width="8.43" height="12.93"/>
	</g>
	<g>
		<rect x="130.48" y="2.69" class="st0" width="8.43" height="29.11"/>
		<rect x="138.91" y="2.69" class="st0" width="16.34" height="4.05"/>
		<rect x="138.91" y="18.67" class="st0" width="16.34" height="4.05"/>
		<rect x="151.03" y="6.74" class="st0" width="8.43" height="11.93"/>
	</g>
	<g>
		<rect x="162.56" y="10.78" class="st0" width="8.43" height="21.02"/>
		<rect x="183.4" y="10.78" class="st0" width="8.43" height="21.02"/>
		<rect x="170.99" y="19.02" class="st0" width="12.41" height="4.05"/>
		<rect x="170.99" y="2.69" class="st0" width="12.41" height="4.05"/>
		<rect x="179.42" y="6.74" class="st0" width="8.2" height="4.05"/>
		<rect x="166.4" y="6.74" class="st0" width="8.2" height="4.05"/>
	</g>
	<g>
		<rect x="198.22" y="2.69" class="st0" width="23.6" height="4.05"/>
		<rect x="198.22" y="27.76" class="st0" width="23.6" height="4.05"/>
		<rect x="205.8" y="6.74" class="st0" width="8.43" height="21.02"/>
	</g>
	<g>
		<rect x="226.67" y="2.69" class="st0" width="8.43" height="29.11"/>
		
			<rect x="230.84" y="11.28" transform="matrix(-1.836970e-16 1 -1 -1.836970e-16 250.4217 -223.8249)" class="st0" width="12.56" height="4.05"/>
		
			<rect x="234.89" y="15.49" transform="matrix(-1.836970e-16 1 -1 -1.836970e-16 258.6779 -223.6613)" class="st0" width="12.56" height="4.05"/>
		
			<rect x="238.94" y="19.46" transform="matrix(-1.836970e-16 1 -1 -1.836970e-16 266.6942 -223.7374)" class="st0" width="12.56" height="4.05"/>
		<rect x="247.24" y="2.69" class="st0" width="8.43" height="29.11"/>
	</g>
	<g>
		<rect x="268.06" y="6.74" class="st0" width="8.43" height="25.07"/>
		<rect x="258.45" y="2.69" class="st0" width="27.53" height="4.05"/>
	</g>
	<g>
		<rect x="288.97" y="2.69" class="st0" width="8.43" height="29.11"/>
		<rect x="297.4" y="2.69" class="st0" width="20.99" height="4.05"/>
		<rect x="297.4" y="14.81" class="st0" width="12.47" height="4.05"/>
		<rect x="297.4" y="27.76" class="st0" width="20.99" height="4.05"/>
	</g>
	<g>
		<rect x="323.84" y="6.74" class="st0" width="6.74" height="25.07"/>
		<rect x="323.84" y="2.69" class="st0" width="23.6" height="4.05"/>
		<rect x="343.56" y="6.74" class="st0" width="8.43" height="12.15"/>
		<rect x="330.58" y="18.89" class="st0" width="12.98" height="4.05"/>
		<rect x="335.58" y="22.94" class="st0" width="11.86" height="4.05"/>
		<rect x="340.13" y="26.98" class="st0" width="11.86" height="4.82"/>
		<rect x="340.37" y="15.19" class="st0" width="3.2" height="3.7"/>
	</g>
</g>
</svg>
